<?xml version="1.0" encoding="UTF-8" standalone="no" ?>
<svg xmlns="http://www.w3.org/2000/svg" xmlns:xlink="http://www.w3.org/1999/xlink" viewBox="0 0 119 119" >
<g transform="matrix(1.33 0 0 -1.33 60 60)" id="K27zmw3bSyjScBS1YRPR_" clip-path="url(#CLIPPATH_16)"  >
<clipPath id="CLIPPATH_16" >
	<path transform="matrix(1 0 0 1 0 -71.23) translate(-420.94, -297.64)" id="path16" d="M 0 595.276 L 841.89 595.276 L 841.89 0 L 0 0 Z" stroke-linecap="round" />
</clipPath>
<path  vector-effect="non-scaling-stroke"  transform=" translate(0, 42.38)" d="M 0 0 C -23.368 0 -42.38 -19.012 -42.38 -42.38 C -42.38 -65.749 -23.368000000000002 -84.76 0 -84.76 C 23.369 -84.76 42.38 -65.74900000000001 42.38 -42.38 C 42.38 -19.012 23.369 0 0 0 M 0 -86.76 C -24.471 -86.76 -44.38 -66.852 -44.38 -42.38 C -44.38 -17.909 -24.471 2 0 2 C 24.471 2 44.38 -17.909 44.38 -42.38 C 44.38 -66.852 24.471 -86.76 0 -86.76" stroke-linecap="round" />
</g>
<g transform="matrix(1.31 0 0 -1.33 83.5 69)" id="HoCkmIDXNNirp82YL1mjK" clip-path="url(#CLIPPATH_17)"  >
<clipPath id="CLIPPATH_17" >
	<path transform="matrix(1 0 0 1 -17.9 -64.29) translate(-420.94, -297.64)" id="path16" d="M 0 595.276 L 841.89 595.276 L 841.89 0 L 0 0 Z" stroke-linecap="round" />
</clipPath>
<path  vector-effect="non-scaling-stroke"  transform=" translate(-4.16, -16.53)" d="M 0 0 C -0.128 0 -0.258 0.025 -0.383 0.077 C -0.893 0.288 -1.135 0.873 -0.924 1.383 C -0.562 2.258 -1.7770000000000001 3.959 -2.851 5.46 C -4.413 7.647 -6.029 9.908999999999999 -5.129 12.082 C -4.550999999999999 13.477 -2.9029999999999996 14.119 -1.4569999999999994 13.522 C -1.1789999999999994 13.407 -0.9259999999999994 13.285 -0.6959999999999994 13.163 C -0.7799999999999994 13.274000000000001 -0.8609999999999994 13.381 -0.9359999999999994 13.479000000000001 C -2.1049999999999995 15.012 -3.5609999999999995 16.92 -2.7839999999999994 18.798000000000002 C -2.2059999999999995 20.192 -0.5629999999999993 20.840000000000003 0.8890000000000007 20.239 C 1.4290000000000007 20.016000000000002 1.8770000000000007 19.758 2.2730000000000006 19.532 C 2.397 19.46 2.542 19.378 2.678 19.305 C 2.479 19.592 2.21 19.931 2.002 20.193 C 0.956 21.509 -0.477 23.311 0.308 25.207 C 0.886 26.6 2.528 27.25 3.98 26.647 C 4.675 26.36 5.231 25.952 5.679 25.625 C 5.75 25.572 5.83 25.514 5.91 25.457 C 5.893 25.53 5.875 25.603 5.858 25.669 C 5.614 26.673000000000002 5.244 28.19 5.917999999999999 29.816000000000003 C 6.797999999999999 31.941000000000003 8.321 32.688 9.445 32.939 C 11.071 33.303 12.531 32.812 13.082 32.584 C 13.592 32.373000000000005 13.834000000000001 31.788000000000004 13.623000000000001 31.277000000000005 C 13.412 30.767000000000003 12.824000000000002 30.525000000000006 12.316 30.736000000000004 C 12.023000000000001 30.857000000000003 10.986 31.234000000000005 9.883000000000001 30.988000000000003 C 8.907 30.769 8.215 30.135 7.766 29.05 C 7.342 28.028 7.586 27.027 7.802 26.143 C 8.02 25.25 8.267 24.238 7.461 23.55 C 6.271 22.712 5.245 23.462 4.497 24.011 C 4.099 24.303 3.688 24.604 3.215 24.8 C 2.734 24.999 2.291 24.77 2.155 24.441 C 1.821 23.634 2.789 22.416 3.567 21.437 C 4.48 20.289 5.732 18.715 4.336 17.552 C 3.266 16.661 2.164 17.29 1.278 17.796 C 0.918 18.003 0.545 18.217 0.123 18.392 C -0.357 18.591 -0.801 18.361 -0.937 18.033 C -1.2730000000000001 17.219 -0.15900000000000003 15.758000000000001 0.6539999999999999 14.692 C 1.5459999999999998 13.522 2.251 12.599 2.088 11.633 C 2.015 11.197 1.7710000000000001 10.831999999999999 1.3860000000000001 10.576999999999998 C 0.5810000000000001 10.040999999999999 -0.21099999999999985 10.536999999999999 -0.847 10.933999999999997 C -1.228 11.170999999999998 -1.66 11.440999999999997 -2.223 11.673999999999998 C -2.703 11.874999999999998 -3.146 11.642999999999997 -3.2809999999999997 11.315999999999997 C -3.757 10.169 -2.41 8.285 -1.223 6.623 C 0.22 4.605 1.711 2.518 0.924 0.618 C 0.765 0.233 0.392 0 0 0" stroke-linecap="round" />
</g>
<g transform="matrix(1.33 0 0 -1.34 88.5 71)" id="gveXEmag1PWTwApueUWh8" clip-path="url(#CLIPPATH_18)"  >
<clipPath id="CLIPPATH_18" >
	<path transform="matrix(1 0 0 1 -21.42 -63.18) translate(-420.94, -297.64)" id="path16" d="M 0 595.276 L 841.89 595.276 L 841.89 0 L 0 0 Z" stroke-linecap="round" />
</clipPath>
<path  vector-effect="non-scaling-stroke"  transform=" translate(-8.42, -17.23)" d="M 0 0 C -0.128 0 -0.258 0.025 -0.383 0.077 C -0.894 0.288 -1.1360000000000001 0.873 -0.924 1.383 L -0.18100000000000005 3.176 C 0.606 5.077 3.137 5.498 5.584 5.905 C 7.599 6.24 9.882 6.62 10.357 7.768 C 10.425 7.931 10.421 8.127 10.346 8.307 C 10.285 8.452 10.151 8.65 9.861 8.77 C 9.3 9.003 8.803 9.118 8.365 9.219 C 7.635 9.388 6.727 9.598 6.534 10.544 C 6.441 10.998000000000001 6.528 11.428 6.784 11.788 C 7.351999999999999 12.586 8.503 12.741 9.961 12.938 C 11.290000000000001 13.116000000000001 13.111 13.361 13.449 14.177000000000001 C 13.584 14.503000000000002 13.434 14.979000000000001 12.953 15.178 C 12.530999999999999 15.353000000000002 12.116 15.466000000000001 11.715 15.575000000000001 C 10.732 15.841000000000001 9.509 16.173000000000002 9.379999999999999 17.562 C 9.216 19.373 11.213 19.601000000000003 12.671999999999999 19.768 C 13.912999999999998 19.909 15.459 20.086000000000002 15.793999999999999 20.894000000000002 C 15.860999999999999 21.056 15.857 21.253 15.781999999999998 21.433000000000003 C 15.721999999999998 21.578000000000003 15.588999999999999 21.775000000000002 15.297999999999998 21.896000000000004 C 14.825999999999999 22.091000000000005 14.320999999999998 22.169000000000004 13.833999999999998 22.245000000000005 C 12.916999999999998 22.387000000000004 11.659999999999998 22.581000000000003 11.424999999999997 23.919000000000004 C 11.328999999999997 25.070000000000004 12.218999999999998 25.612000000000005 13.003999999999998 26.089000000000006 C 13.780999999999997 26.562000000000005 14.661999999999997 27.097000000000005 15.085999999999999 28.119000000000007 C 15.534999999999998 29.204000000000008 15.492999999999999 30.142000000000007 14.958999999999998 30.986000000000008 C 14.354999999999999 31.93800000000001 13.352999999999998 32.40800000000001 13.059999999999999 32.52900000000001 C 12.549999999999999 32.74000000000001 12.307999999999998 33.32500000000001 12.518999999999998 33.83500000000001 C 12.729 34.34700000000001 13.316999999999998 34.586000000000006 13.825 34.37700000000001 C 14.376 34.14900000000001 15.756 33.46500000000001 16.648 32.05600000000001 C 17.265 31.08400000000001 17.813 29.479000000000013 16.934 27.354000000000013 C 16.26 25.728000000000012 14.926000000000002 24.917000000000012 14.043000000000001 24.380000000000013 C 13.984000000000002 24.344000000000012 13.921000000000001 24.30600000000001 13.856000000000002 24.266000000000012 C 13.954000000000002 24.250000000000014 14.052000000000001 24.235000000000014 14.140000000000002 24.22100000000001 C 14.688000000000002 24.13600000000001 15.369000000000003 24.03100000000001 16.063000000000002 23.74300000000001 C 16.781000000000002 23.44600000000001 17.337000000000003 22.899000000000008 17.627000000000002 22.204000000000008 C 17.906000000000002 21.53600000000001 17.911 20.779000000000007 17.642000000000003 20.128000000000007 C 16.855000000000004 18.232000000000006 14.568000000000003 17.971000000000007 12.898000000000003 17.78000000000001 C 12.563000000000002 17.742000000000008 12.129000000000003 17.692000000000007 11.783000000000003 17.62900000000001 C 11.932000000000002 17.588000000000008 12.096000000000004 17.54300000000001 12.238000000000003 17.50500000000001 C 12.679000000000004 17.38500000000001 13.178000000000003 17.25000000000001 13.719000000000003 17.02600000000001 C 15.165000000000003 16.42700000000001 15.873000000000003 14.80600000000001 15.297000000000002 13.41200000000001 C 14.518000000000002 11.53300000000001 12.139000000000003 11.21200000000001 10.229000000000003 10.955000000000009 C 10.106000000000003 10.939000000000009 9.974000000000002 10.921000000000008 9.836000000000002 10.901000000000009 C 10.084000000000001 10.825000000000008 10.349000000000002 10.73300000000001 10.627000000000002 10.61800000000001 C 11.345 10.32 11.9 9.773 12.19 9.078 C 12.47 8.41 12.475 7.653 12.205 7.002 C 11.306 4.83 8.563 4.374 5.912 3.932 C 4.092 3.629 2.029 3.286 1.667 2.411 L 0.924 0.618 C 0.765 0.232 0.392 0 0 0" stroke-linecap="round" />
</g>
<g transform="matrix(1.32 0 0 -1.34 59.5 30.5)" id="AutiKj4IDlxscR31SWbvu" clip-path="url(#CLIPPATH_19)"  >
<clipPath id="CLIPPATH_19" >
	<path transform="matrix(1 0 0 1 -0.03 -93) translate(-420.94, -297.64)" id="path16" d="M 0 595.276 L 841.89 595.276 L 841.89 0 L 0 0 Z" stroke-linecap="round" />
</clipPath>
<path  vector-effect="non-scaling-stroke"  transform=" translate(-4.35, 2.52)" d="M 0 0 C -0.372 -2.077 0.741 -4.161 2.817 -5.021 C 4.895 -5.882 7.155 -5.194 8.361 -3.463 z M 4.604 -7.379 C 3.753 -7.379 2.888 -7.215 2.052 -6.869 C 0.41400000000000015 -6.191 -0.8639999999999999 -4.931 -1.5470000000000002 -3.3209999999999997 C -2.236 -1.6989999999999996 -2.242 0.0950000000000002 -1.564 1.7300000000000004 C -1.353 2.24 -0.77 2.4830000000000005 -0.2570000000000001 2.2710000000000004 L 10.149000000000001 -2.0389999999999993 C 10.395000000000001 -2.140999999999999 10.589 -2.334999999999999 10.690000000000001 -2.579999999999999 C 10.792000000000002 -2.8249999999999993 10.792000000000002 -3.100999999999999 10.690000000000001 -3.345999999999999 C 9.648 -5.861 7.195 -7.379 4.604 -7.379" stroke-linecap="round" />
</g>
<g transform="matrix(1.34 0 0 -1.3 60.5 26)" id="bb9Ds3LUjjxoMpCUUTfzA" clip-path="url(#CLIPPATH_20)"  >
<clipPath id="CLIPPATH_20" >
	<path transform="matrix(1 0 0 1 -0.77 -97.1) translate(-420.94, -297.64)" id="path16" d="M 0 595.276 L 841.89 595.276 L 841.89 0 L 0 0 Z" stroke-linecap="round" />
</clipPath>
<path  vector-effect="non-scaling-stroke"  transform=" translate(4.27, -5.38)" d="M 0 0 C -0.128 0 -0.258 0.025 -0.383 0.077 C -0.893 0.288 -1.135 0.873 -0.924 1.383 L -0.272 2.956 C 0.15599999999999997 3.992 0.15699999999999997 5.132 -0.272 6.167 C -0.7010000000000001 7.202 -1.5070000000000001 8.008 -2.543 8.437999999999999 C -3.5780000000000003 8.866 -4.718 8.866999999999999 -5.753 8.437 C -6.788 8.008 -7.594 7.201999999999999 -8.023 6.167 L -8.675 4.593 C -8.886000000000001 4.083 -9.469000000000001 3.842 -9.981000000000002 4.052 C -10.492 4.263999999999999 -10.734000000000002 4.848999999999999 -10.522000000000002 5.359 L -9.871000000000002 6.933 C -8.563000000000002 10.089 -4.931000000000002 11.591999999999999 -1.7770000000000028 10.285 C -0.248 9.652 0.942 8.461 1.576 6.933 C 2.209 5.404 2.209 3.72 1.575 2.191 L 0.924 0.618 C 0.765 0.233 0.392 0 0 0" stroke-linecap="round" />
</g>
<g transform="matrix(1.36 0 0 -1.26 52.5 37.5)" id="QO1OCJSqKdGfhr2PcE1BN" clip-path="url(#CLIPPATH_21)"  >
<clipPath id="CLIPPATH_21" >
	<path transform="matrix(1 0 0 1 5.68 -87.8) translate(-420.94, -297.64)" id="path16" d="M 0 595.276 L 841.89 595.276 L 841.89 0 L 0 0 Z" stroke-linecap="round" />
</clipPath>
<path  vector-effect="non-scaling-stroke"  transform=" translate(-1.73, -2.77)" d="M 0 0 C -0.836 0 -1.663 0.161 -2.445 0.485 C -2.956 0.697 -3.198 1.282 -2.9859999999999998 1.7919999999999998 C -2.775 2.3019999999999996 -2.1919999999999997 2.545 -1.6799999999999997 2.3329999999999997 C -0.49699999999999966 1.8419999999999996 0.8510000000000004 1.8969999999999998 2.112 2.489 C 3.258 3.027 4.188000000000001 3.9379999999999997 4.598000000000001 4.928 C 4.808000000000001 5.438 5.391000000000001 5.682 5.904000000000001 5.469 C 6.415 5.258 6.657 4.673 6.445 4.163 C 5.85 2.725 4.547 1.422 2.961 0.678 C 1.997 0.227 0.991 0 0 0" stroke-linecap="round" />
</g>
<g transform="matrix(1.31 0 0 -1.32 34.5 84.5)" id="zVfl8oxQ42H88OY2XURVJ" clip-path="url(#CLIPPATH_22)"  >
<clipPath id="CLIPPATH_22" >
	<path transform="matrix(1 0 0 1 18.84 -52.52) translate(-420.94, -297.64)" id="path16" d="M 0 595.276 L 841.89 595.276 L 841.89 0 L 0 0 Z" stroke-linecap="round" />
</clipPath>
<path  vector-effect="non-scaling-stroke"  transform=" translate(9.29, -11)" d="M 0 0 C -0.23 0 -0.462 0.079 -0.651 0.241 C -2.0380000000000003 1.432 -2.058 2.835 -2.074 3.964 C -2.0879999999999996 5.035 -2.127 5.621 -2.799 6.197 C -3.471 6.773 -4.057 6.723 -5.117 6.575 C -6.2330000000000005 6.418 -7.625 6.224 -9.013 7.415 C -10.398 8.604 -10.417 10.008 -10.432 11.136 C -10.446 12.206 -10.485000000000001 12.790999999999999 -11.154 13.364999999999998 C -11.823 13.937999999999999 -12.406 13.886999999999999 -13.467 13.738999999999999 C -14.585 13.584 -15.974 13.387999999999998 -17.36 14.576999999999998 C -18.823 15.831999999999997 -18.833 17.133 -18.841 18.177999999999997 C -18.847 18.956999999999997 -18.853 19.628999999999998 -19.405 20.420999999999996 C -19.722 20.873999999999995 -19.611 21.496999999999996 -19.158 21.812999999999995 C -18.705000000000002 22.128999999999994 -18.082 22.018999999999995 -17.766000000000002 21.564999999999994 C -16.857000000000003 20.264999999999993 -16.848000000000003 19.116999999999994 -16.841 18.193999999999996 C -16.834 17.267999999999997 -16.830000000000002 16.756999999999994 -16.057000000000002 16.093999999999994 C -15.388000000000002 15.520999999999994 -14.805000000000001 15.570999999999994 -13.745000000000003 15.719999999999994 C -12.627000000000002 15.875999999999994 -11.239000000000003 16.071999999999992 -9.852000000000004 14.882999999999994 C -8.466000000000005 13.693999999999994 -8.447000000000005 12.289999999999994 -8.432000000000004 11.161999999999994 C -8.418000000000005 10.091999999999993 -8.379000000000003 9.506999999999994 -7.710000000000004 8.932999999999993 C -7.039000000000004 8.356999999999992 -6.4550000000000045 8.405999999999993 -5.393000000000004 8.554999999999993 C -4.275000000000004 8.711999999999993 -2.886000000000004 8.904999999999992 -1.4970000000000043 7.714999999999993 C -0.109 6.524 -0.089 5.12 -0.074 3.992 C -0.059 2.921 -0.02 2.335 0.652 1.759 C 1.071 1.399 1.119 0.768 0.759 0.349 C 0.562 0.118 0.282 0 0 0" stroke-linecap="round" />
</g>
<g transform="matrix(1.31 0 0 -1.33 26 50.5)" id="uY2DVz4Oy3ZFA7AOC3jd4" clip-path="url(#CLIPPATH_23)"  >
<clipPath id="CLIPPATH_23" >
	<path transform="matrix(1 0 0 1 25.3 -78.05) translate(-420.94, -297.64)" id="path16" d="M 0 595.276 L 841.89 595.276 L 841.89 0 L 0 0 Z" stroke-linecap="round" />
</clipPath>
<path  vector-effect="non-scaling-stroke"  transform=" translate(0.84, -3.4)" d="M 0 0 C -0.704 0 -1.411 0.136 -2.078 0.412 C -3.8689999999999998 1.154 -5.141 2.8129999999999997 -5.398 4.741 C -5.444999999999999 5.096 -5.2989999999999995 5.449 -5.013999999999999 5.667 C -3.469 6.85 -1.397 7.122 0.394 6.38 C 1.158 6.063 1.822 5.592 2.37 4.98 C 2.738 4.568 2.702 3.936 2.291 3.568 C 1.878 3.2 1.247 3.237 0.878 3.647 C 0.533 4.034 0.112 4.332 -0.372 4.532 C -1.315 4.923 -2.384 4.867 -3.281 4.406 C -2.974 3.445 -2.257 2.651 -1.312 2.26 C -0.179 1.791 1.134 1.964 2.115 2.714 C 2.552 3.048 3.18 2.967 3.517 2.527 C 3.852 2.088 3.769 1.461 3.33 1.125 C 2.361 0.384 1.184 0 0 0" stroke-linecap="round" />
</g>
<g transform="matrix(1.33 0 0 -1.31 32.5 48)" id="U-M1Yx34s0MVp4A93Ad-2" clip-path="url(#CLIPPATH_24)"  >
<clipPath id="CLIPPATH_24" >
	<path transform="matrix(1 0 0 1 20.45 -80.06) translate(-420.94, -297.64)" id="path16" d="M 0 595.276 L 841.89 595.276 L 841.89 0 L 0 0 Z" stroke-linecap="round" />
</clipPath>
<path  vector-effect="non-scaling-stroke"  transform=" translate(1.01, 2.44)" d="M 0 0 C -0.961 -0.307 -1.755 -1.023 -2.146 -1.968 C -2.538 -2.912 -2.4819999999999998 -3.98 -2.021 -4.877 C -1.06 -4.569999999999999 -0.2649999999999999 -3.854 0.1259999999999999 -2.909 C 0.517 -1.965 0.462 -0.897 0 0 M -2.487 -7.003 C -2.7960000000000003 -7.003 -3.09 -6.86 -3.281 -6.61 C -4.463 -5.066000000000001 -4.736000000000001 -2.994 -3.994 -1.2030000000000003 C -3.2520000000000002 0.5889999999999997 -1.5930000000000004 1.8609999999999998 0.3340000000000001 2.1169999999999995 C 0.697 2.164 1.043 2.018 1.261 1.733 C 2.442 0.188 2.715 -1.883 1.974 -3.675 C 1.232 -5.466 -0.427 -6.737 -2.355 -6.994 C -2.399 -7 -2.443 -7.003 -2.487 -7.003" stroke-linecap="round" />
</g>
<g transform="matrix(1.39 0 0 -1.4 27.5 44.5)" id="5VLMK0aDRVjqjoeIByl-B" clip-path="url(#CLIPPATH_25)"  >
<clipPath id="CLIPPATH_25" >
	<path transform="matrix(1 0 0 1 24.31 -82.85) translate(-420.94, -297.64)" id="path16" d="M 0 595.276 L 841.89 595.276 L 841.89 0 L 0 0 Z" stroke-linecap="round" />
</clipPath>
<path  vector-effect="non-scaling-stroke"  transform=" translate(-1.89, -3.21)" d="M 0 0 C -0.393 0 -0.765 0.232 -0.924 0.618 C -1.667 2.409 -1.393 4.481 -0.211 6.025 C 0.007 6.31 0.363 6.458 0.715 6.409 C 2.643 6.152 4.302 4.88 5.043 3.09 C 5.255 2.58 5.013 1.995 4.502 1.783 C 3.992 1.572 3.407 1.814 3.196 2.324 C 2.805 3.268 2.01 3.985 1.049 4.292 C 0.587 3.396 0.532 2.327 0.923 1.383 C 1.135 0.873 0.893 0.288 0.382 0.077 C 0.257 0.025 0.127 0 0 0" stroke-linecap="round" />
</g>
<g transform="matrix(1.5 0 0 -1.51 82.5 35.5)" id="80h0foW-opCGCyGKM0UyZ" clip-path="url(#CLIPPATH_26)"  >
<clipPath id="CLIPPATH_26" >
	<path transform="matrix(1 0 0 1 -17.32 -89.12) translate(-420.94, -297.64)" id="path16" d="M 0 595.276 L 841.89 595.276 L 841.89 0 L 0 0 Z" stroke-linecap="round" />
</clipPath>
<path  vector-effect="non-scaling-stroke"  transform=" translate(0, -0.99)" d="M 0 0 C -0.26 0 -0.52 0.11 -0.7 0.29 C -0.89 0.48 -1 0.74 -1 1 C -1 1.27 -0.89 1.52 -0.7 1.71 C -0.33999999999999997 2.08 0.3400000000000001 2.08 0.71 1.71 C 0.9 1.52 1 1.27 1 1 C 1 0.74 0.9 0.48 0.71 0.29 L 0.561 0.17 C 0.5 0.13 0.45 0.1 0.391 0.08 C 0.33 0.05 0.261 0.03 0.2 0.02 C 0.13 0.01 0.07 0 0 0" stroke-linecap="round" />
</g>
<g transform="matrix(1.49 0 0 -1.51 59.5 93.5)" id="Y8cTGHWWikd9M1pdSfmVZ" clip-path="url(#CLIPPATH_27)"  >
<clipPath id="CLIPPATH_27" >
	<path transform="matrix(1 0 0 1 0 -46.2) translate(-420.94, -297.64)" id="path16" d="M 0 595.276 L 841.89 595.276 L 841.89 0 L 0 0 Z" stroke-linecap="round" />
</clipPath>
<path  vector-effect="non-scaling-stroke"  transform=" translate(0.01, -0.99)" d="M 0 0 C -0.27 0 -0.53 0.11 -0.71 0.29 C -0.8 0.38 -0.88 0.49 -0.93 0.62 C -0.98 0.74 -1.01 0.87 -1.01 1 C -1.01 1.13 -0.98 1.26 -0.93 1.38 C -0.88 1.5 -0.8 1.6099999999999999 -0.7100000000000001 1.71 C -0.3400000000000001 2.08 0.32999999999999996 2.08 0.6999999999999998 1.71 C 0.79 1.61 0.87 1.5 0.92 1.38 C 0.97 1.26 1 1.13 1 1 C 1 0.87 0.97 0.74 0.92 0.62 C 0.87 0.49 0.79 0.38 0.7 0.29 C 0.52 0.11 0.26 0 0 0" stroke-linecap="round" />
</g>
<g transform="matrix(1.5 0 0 -1.5 40.5 32.5)" id="S2HPpN-Kg2VaxlQFzWUuu" clip-path="url(#CLIPPATH_28)"  >
<clipPath id="CLIPPATH_28" >
	<path transform="matrix(1 0 0 1 14.71 -91.46) translate(-420.94, -297.64)" id="path16" d="M 0 595.276 L 841.89 595.276 L 841.89 0 L 0 0 Z" stroke-linecap="round" />
</clipPath>
<path  vector-effect="non-scaling-stroke"  transform=" translate(0, -1)" d="M 0 0 C -0.07 0 -0.13 0.01 -0.2 0.02 C -0.26 0.04 -0.33 0.06 -0.39 0.08 C -0.45 0.11 -0.5 0.14 -0.56 0.17 C -0.61 0.21 -0.66 0.25 -0.71 0.3 C -0.9 0.48 -1 0.74 -1 1 C -1 1.1400000000000001 -0.98 1.27 -0.9299999999999999 1.3900000000000001 C -0.8799999999999999 1.5100000000000002 -0.7999999999999999 1.62 -0.71 1.7100000000000002 C -0.6599999999999999 1.7600000000000002 -0.61 1.8000000000000003 -0.5599999999999999 1.8400000000000003 C -0.49999999999999994 1.8700000000000003 -0.44999999999999996 1.9000000000000004 -0.3899999999999999 1.9300000000000004 C -0.3299999999999999 1.9500000000000004 -0.2599999999999999 1.9700000000000004 -0.1999999999999999 1.9900000000000004 C -0.0699999999999999 2.0100000000000002 0.06000000000000011 2.0100000000000002 0.1900000000000001 1.9900000000000004 C 0.26 1.97 0.32 1.95 0.38 1.93 C 0.44 1.9 0.5 1.87 0.55 1.84 C 0.61 1.8 0.66 1.76 0.7 1.71 C 0.8 1.62 0.87 1.51 0.92 1.39 C 0.97 1.27 1 1.14 1 1 C 1 0.74 0.89 0.48 0.7 0.3 C 0.66 0.25 0.61 0.21 0.55 0.17 C 0.5 0.14 0.44 0.11 0.38 0.08 C 0.32 0.06 0.26 0.04 0.19 0.02 C 0.13 0.01 0.06 0 0 0" stroke-linecap="round" />
</g>
<g transform="matrix(1.49 0 0 -1.5 26.5 63.5)" id="npUz1CC6g8s-3gQvPlQ3y" clip-path="url(#CLIPPATH_29)"  >
<clipPath id="CLIPPATH_29" >
	<path transform="matrix(1 0 0 1 24.83 -68.15) translate(-420.94, -297.64)" id="path16" d="M 0 595.276 L 841.89 595.276 L 841.89 0 L 0 0 Z" stroke-linecap="round" />
</clipPath>
<path  vector-effect="non-scaling-stroke"  transform=" translate(0.01, -1)" d="M 0 0 C -0.14 0 -0.27 0.03 -0.39 0.08 C -0.51 0.13 -0.62 0.2 -0.71 0.3 C -0.9 0.48 -1.01 0.74 -1.01 1 C -1.01 1.1400000000000001 -0.98 1.26 -0.93 1.3900000000000001 C -0.88 1.5100000000000002 -0.81 1.62 -0.7100000000000001 1.7100000000000002 C -0.6200000000000001 1.8000000000000003 -0.51 1.8800000000000001 -0.39000000000000007 1.9300000000000002 C -0.02 2.08 0.42 1.99 0.7 1.71 C 0.8 1.62 0.87 1.51 0.92 1.39 C 0.97 1.26 1 1.14 1 1 C 1 0.74 0.89 0.48 0.7 0.3 C 0.52 0.11 0.26 0 0 0" stroke-linecap="round" />
</g>
<g transform="matrix(1.34 0 0 -1.33 60 59.5)" id="J1cgtzgCBRigQkxzIWKJR" clip-path="url(#CLIPPATH_30)"  >
<clipPath id="CLIPPATH_30" >
	<path transform="matrix(1 0 0 1 0 -71.35) translate(-420.94, -297.64)" id="path16" d="M 0 595.276 L 841.89 595.276 L 841.89 0 L 0 0 Z" stroke-linecap="round" />
</clipPath>
<path  vector-effect="non-scaling-stroke"  transform=" translate(-3.23, -4.4)" d="M 0 0 L 2.054 0 C 3.229 0 4.333 0.458 5.164 1.289 C 5.994999999999999 2.1189999999999998 6.452 3.224 6.452 4.398 C 6.452 5.5729999999999995 5.994 6.677999999999999 5.164 7.509 C 4.333 8.339 3.2289999999999996 8.797 2.054 8.797 L 0 8.797 Z M 2.054 -2 L -1 -2 C -1.552 -2 -2 -1.552 -2 -1 L -2 9.797 C -2 10.349 -1.552 10.797 -1 10.797 L 2.054 10.797 C 3.763 10.797 5.369999999999999 10.131 6.577999999999999 8.923 C 7.787 7.714 8.452 6.107 8.452 4.398 C 8.452 2.689 7.787 1.083 6.578 -0.125 C 5.37 -1.334 3.763 -2 2.054 -2" stroke-linecap="round" />
</g>
</svg>
